HIERARCHY
ROOT Hips
{
	OFFSET 0.000000 0.000000 0.000000
	CHANNELS 6 Xposition Yposition Zposition Xrotation Yrotation Zrotation
	JOINT LeftUpLeg_virtual
	{
		OFFSET 0.000000 0.000000 0.000000
		CHANNELS 3 Xrotation Yrotation Zrotation
		JOINT LeftUpLeg
		{
			OFFSET 13.026900 -6.336304 -1.092800
			CHANNELS 3 Xrotation Yrotation Zrotation
			JOINT LeftLeg
			{
				OFFSET 0.524474 -46.096886 9.782700
				CHANNELS 3 Xrotation Yrotation Zrotation
				JOINT LeftFoot
				{
					OFFSET -0.524474 -53.427422 -12.948200
					CHANNELS 3 Xrotation Yrotation Zrotation
					JOINT LeftToeBase
					{
						OFFSET 0.192200 -14.009700 16.364100
						CHANNELS 3 Xrotation Yrotation Zrotation
						JOINT LeftToe_End
						{
							OFFSET -1.784700 -0.561700 9.474800
							CHANNELS 3 Xrotation Yrotation Zrotation
							End Site
							{
								OFFSET 0 0 0
							}
						}
					}
				}
			}
		}
	}
	JOINT RightUpLeg_virtual
	{
		OFFSET 0.000000 0.000000 0.000000
		CHANNELS 3 Xrotation Yrotation Zrotation
		JOINT RightUpLeg
		{
			OFFSET -12.883000 -6.336304 -1.092800
			CHANNELS 3 Xrotation Yrotation Zrotation
			JOINT RightLeg
			{
				OFFSET -0.524587 -46.096825 9.782800
				CHANNELS 3 Xrotation Yrotation Zrotation
				JOINT RightFoot
				{
					OFFSET 0.524587 -53.427383 -12.948300
					CHANNELS 3 Xrotation Yrotation Zrotation
					JOINT RightToeBase
					{
						OFFSET -0.192200 -14.009700 16.364100
						CHANNELS 3 Xrotation Yrotation Zrotation
						JOINT RightToe_End
						{
							OFFSET 1.784700 -0.561700 9.474800
							CHANNELS 3 Xrotation Yrotation Zrotation
							End Site
							{
								OFFSET 0 0 0
							}
						}
					}
				}
			}
		}
	}
	JOINT Spine_virtual
	{
		OFFSET 0.000000 0.000000 0.000000
		CHANNELS 3 Xrotation Yrotation Zrotation
		JOINT Spine
		{
			OFFSET 0.072000 7.257294 -0.789700
			CHANNELS 3 Xrotation Yrotation Zrotation
			JOINT Spine1
			{
				OFFSET 0.000000 12.508769 -0.658067
				CHANNELS 3 Xrotation Yrotation Zrotation
				JOINT Spine1_split
				{
					OFFSET 0.000000 12.508769 -0.658067
					CHANNELS 3 Xrotation Yrotation Zrotation
					JOINT Spine2
					{
						OFFSET 0.000000 12.508769 -0.658067
						CHANNELS 3 Xrotation Yrotation Zrotation
						JOINT Neck_virtual
						{
							OFFSET 0.000000 0.000000 0.000000
							CHANNELS 3 Xrotation Yrotation Zrotation
							JOINT Neck
							{
								OFFSET 0.000000 14.033295 7.520400
								CHANNELS 3 Xrotation Yrotation Zrotation
								JOINT Head
								{
									OFFSET 0.000000 8.198502 5.703100
									CHANNELS 3 Xrotation Yrotation Zrotation
									JOINT HeadTop_End
									{
										OFFSET 0.000000 17.760803 13.332701
										CHANNELS 3 Xrotation Yrotation Zrotation
										End Site
										{
											OFFSET 0 0 0
										}
									}
								}
							}
						}
						JOINT LeftShoulder_virtual
						{
							OFFSET 0.000000 0.000000 0.000000
							CHANNELS 3 Xrotation Yrotation Zrotation
							JOINT LeftShoulder
							{
								OFFSET 6.292450 5.785301 -0.669000
								CHANNELS 3 Xrotation Yrotation Zrotation
								JOINT LeftShoulder_split
								{
									OFFSET 6.292450 5.785301 -0.669000
									CHANNELS 3 Xrotation Yrotation Zrotation
									JOINT LeftArm
									{
										OFFSET 13.907140 -6.093903 1.965100
										CHANNELS 3 Xrotation Yrotation Zrotation
										JOINT LeftForeArm
										{
											OFFSET 34.140198 0.000000 0.000000
											CHANNELS 3 Xrotation Yrotation Zrotation
											JOINT LeftHand
											{
												OFFSET 40.960209 0.000000 0.000000
												CHANNELS 3 Xrotation Yrotation Zrotation
												End Site
												{
													OFFSET 0 0 0
												}
											}
										}
									}
								}
							}
						}
						JOINT RightShoulder_virtual
						{
							OFFSET 0.000000 0.000000 0.000000
							CHANNELS 3 Xrotation Yrotation Zrotation
							JOINT RightShoulder
							{
								OFFSET -6.292450 5.785301 -0.669000
								CHANNELS 3 Xrotation Yrotation Zrotation
								JOINT RightShoulder_split
								{
									OFFSET -6.292450 5.785301 -0.669000
									CHANNELS 3 Xrotation Yrotation Zrotation
									JOINT RightArm
									{
										OFFSET -13.907140 -6.093903 1.965100
										CHANNELS 3 Xrotation Yrotation Zrotation
										JOINT RightForeArm
										{
											OFFSET -34.140198 0.000000 0.000000
											CHANNELS 3 Xrotation Yrotation Zrotation
											JOINT RightHand
											{
												OFFSET -40.960209 0.000000 0.000000
												CHANNELS 3 Xrotation Yrotation Zrotation
												End Site
												{
													OFFSET 0 0 0
												}
											}
										}
									}
								}
							}
						}
					}
				}
			}
		}
	}
}
MOTION
Frames: 7
Frame Time: 0.03333333
10.369705 101.329994 -13.518917 0.000000 0.000000 0.000000 44.528810 -80.045603 50.964464 -2.951529 31.552390 9.725832 24.580638 -10.386438 -0.474103 -17.453213 21.625600 -18.859324 -2.660291 -3.725646 -3.561917 0.000000 0.000000 0.000000 48.243675 -79.538454 53.761382 -51.409181 22.944424 -5.519318 41.730011 -1.943633 1.106217 -3.684403 9.305491 25.182359 2.864762 4.697168 -10.787211 0.000000 0.000000 0.000000 34.188191 -75.298130 39.960261 25.349293 -8.193398 0.746263 18.935135 -0.630146 0.847980 0.112423 0.712499 -0.146171 0.000000 0.000000 0.000000 18.255566 1.235905 0.426643 -2.089898 -0.433707 6.386684 -23.229323 -45.217823 -0.508647 0.000000 0.000000 0.000000 20.446366 -1.666547 0.880633 -0.181992 4.901859 16.375134 -1.934186 -4.457232 0.028201 7.266620 -0.995787 -67.462919 44.649148 -66.807009 38.024070 0.000000 0.000000 0.000000 20.563683 -0.279563 1.822853 7.341989 12.926925 6.033790 5.286686 0.047706 9.039902 -52.283937 32.759517 62.153765 -135.129132 73.775858 125.701039 0.000000 0.000000 0.000000 
10.620718 101.118484 -13.727680 0.000000 0.000000 0.000000 38.091176 -79.290805 44.409364 -4.500661 31.406084 11.103695 25.206501 -11.710944 -0.177055 -16.997330 18.566058 -18.219769 -3.648816 -3.722065 -4.104122 0.000000 0.000000 0.000000 40.605106 -78.820670 46.150318 -50.415289 22.456762 -7.785739 44.223146 -2.085684 0.958512 -4.075392 6.956514 26.168654 3.011866 4.497992 -10.306809 0.000000 0.000000 0.000000 31.353266 -74.738826 36.800404 24.169640 -7.114948 1.574866 18.676765 -1.742462 0.596916 0.067768 0.663724 -0.123394 0.000000 0.000000 0.000000 18.368950 -0.002051 -0.019858 -0.200913 0.047150 4.666472 -21.894149 -37.602893 1.171124 0.000000 0.000000 0.000000 20.117267 -2.936275 0.717587 -0.439365 5.623103 16.052186 -0.448117 -5.990748 0.836208 1.364064 5.738903 -63.455381 48.669650 -71.263195 41.095964 0.000000 0.000000 0.000000 20.060807 -1.720068 1.267493 7.512442 13.368898 6.150342 3.751503 0.526357 8.090722 -46.416483 28.005968 57.393875 -146.715277 74.818637 138.414740 0.000000 0.000000 0.000000 
10.816731 101.265320 -14.296711 0.000000 0.000000 0.000000 30.035122 -77.842778 36.071919 -6.886649 30.364549 13.050193 25.897984 -13.355483 0.366004 -15.323203 14.374172 -18.447707 -5.069666 -3.670348 -4.415130 0.000000 0.000000 0.000000 32.665055 -77.513023 38.025709 -48.854513 21.614842 -10.390969 45.989477 -1.704927 0.645211 -4.195044 4.563885 28.355184 3.629575 4.486409 -10.224943 0.000000 0.000000 0.000000 27.586779 -73.537307 32.430787 22.385815 -5.349307 3.212319 18.265350 -3.025551 0.141103 -0.007296 0.581195 -0.145344 0.000000 0.000000 0.000000 18.308698 -1.491166 -0.532941 1.916406 1.298326 2.108547 -21.271284 -28.609508 1.256414 0.000000 0.000000 0.000000 19.671157 -4.379072 0.287215 -0.529071 6.104632 15.378335 1.412355 -6.508194 1.402689 -4.535493 8.621256 -59.536915 61.596996 -77.011995 53.189531 0.000000 0.000000 0.000000 19.585578 -3.334239 0.477854 7.733146 14.247126 6.054589 1.097404 0.330237 7.585002 -41.861154 24.835317 54.918669 -156.726614 75.244082 149.614228 0.000000 0.000000 0.000000 
10.951525 101.682480 -14.814404 0.000000 0.000000 0.000000 22.779878 -75.611874 28.382151 -9.886011 28.575544 15.181258 26.628358 -14.563027 0.992169 -12.911474 9.697608 -18.786560 -6.549932 -3.610585 -4.401108 0.000000 0.000000 0.000000 26.158942 -75.641750 31.141073 -46.270174 20.191719 -12.849142 46.522648 -1.074765 0.121200 -4.728718 1.923540 30.958679 4.618183 4.648201 -10.342091 0.000000 0.000000 0.000000 23.922026 -71.878548 27.948873 20.044932 -3.044522 5.160663 17.664676 -4.199746 -0.538267 -0.144606 0.393512 -0.189253 0.000000 0.000000 0.000000 17.978680 -2.932593 -1.172219 4.363410 2.953419 -0.660644 -20.761408 -19.127987 0.585369 0.000000 0.000000 0.000000 19.115319 -5.709512 -0.447051 -0.373490 6.061069 14.177576 2.464259 -5.950410 1.407331 -8.970188 7.211040 -56.499291 94.896306 -81.153535 85.832385 0.000000 0.000000 0.000000 19.211010 -4.836781 -0.493674 7.828848 15.286300 5.699441 -2.189524 -0.650034 7.834261 -38.298339 22.991458 53.841671 -162.522002 75.034553 156.518129 0.000000 0.000000 0.000000 
10.945133 102.167564 -14.991840 0.000000 0.000000 0.000000 17.375651 -72.650755 22.442441 -13.259888 26.194489 17.061725 27.572961 -14.816984 1.643343 -10.326092 5.452943 -18.662162 -7.311916 -3.547077 -4.173331 0.000000 0.000000 0.000000 21.370612 -73.281318 25.885871 -42.772308 17.967047 -14.884191 46.019035 -0.542048 -0.542022 -5.662985 -1.239971 33.192520 5.330266 4.976600 -10.445659 0.000000 0.000000 0.000000 20.094514 -69.706370 23.433464 17.332662 -0.457883 6.845178 16.921737 -4.967729 -1.327074 -0.192728 0.210433 -0.135684 0.000000 0.000000 0.000000 17.266735 -3.969862 -1.888375 6.951253 4.854563 -2.890512 -20.143719 -9.867976 -0.265419 0.000000 0.000000 0.000000 18.364263 -6.640344 -1.396600 0.025885 5.285504 12.419700 2.521268 -5.090650 0.833194 -10.954512 3.090505 -54.765795 136.298474 -80.640184 126.936279 0.000000 0.000000 0.000000 18.910868 -5.862250 -1.472314 7.711504 15.966477 4.838249 -5.561340 -1.665504 9.307705 -35.539489 22.401866 53.035575 -163.255345 74.071257 158.210062 0.000000 0.000000 0.000000 
10.722023 102.465538 -14.845707 0.000000 0.000000 0.000000 13.922711 -69.162687 18.421922 -16.578554 23.583397 18.269376 28.582875 -13.878384 2.204345 -8.421958 2.356550 -17.583683 -6.934252 -3.476717 -3.867525 0.000000 0.000000 0.000000 17.790239 -70.688025 21.964044 -38.809719 14.935264 -16.447497 45.185175 -0.123087 -1.309051 -6.864344 -4.836702 34.834197 5.450220 5.425107 -10.425841 0.000000 0.000000 0.000000 16.444480 -66.962287 19.398683 14.469959 2.232655 7.776415 16.015197 -5.171205 -1.996925 -0.163381 -0.109724 -0.064418 0.000000 0.000000 0.000000 16.174014 -4.372988 -2.449900 9.231713 6.555669 -4.026623 -19.281781 -2.049378 -0.937193 0.000000 0.000000 0.000000 17.263156 -6.945415 -2.356760 0.559057 3.913797 10.210883 1.564334 -4.127416 -0.144666 -10.881329 -2.102366 -53.957828 156.757199 -78.109934 147.484835 0.000000 0.000000 0.000000 18.437385 -6.190524 -2.233840 7.332200 16.049852 3.400862 -8.197271 -2.427828 11.244293 -33.900442 22.826728 52.360766 -159.830197 72.567365 155.502575 0.000000 0.000000 0.000000 
10.283152 102.438988 -14.292149 0.000000 0.000000 0.000000 12.065994 -65.660794 16.117862 -19.772332 21.017390 18.869108 29.748479 -12.327375 2.637775 -7.240464 0.439576 -16.180221 -5.895256 -3.351167 -3.540852 0.000000 0.000000 0.000000 14.967849 -67.713409 19.010361 -34.988180 11.400079 -17.661472 44.591737 0.455137 -2.163849 -8.310197 -8.375101 36.078893 5.052765 5.927322 -10.310885 0.000000 0.000000 0.000000 13.155992 -63.750267 16.069905 11.681667 4.835925 7.661019 14.984634 -4.851142 -2.315171 -0.025831 -0.461254 0.104972 0.000000 0.000000 0.000000 14.749169 -4.094631 -2.654322 10.624149 7.753797 -3.718915 -18.122862 3.283458 -1.210846 0.000000 0.000000 0.000000 15.785262 -6.629083 -3.072411 1.040201 2.274259 7.666909 -0.238113 -3.228084 -1.316720 -9.720140 -6.994477 -53.501480 166.181945 -75.590667 157.523833 0.000000 0.000000 0.000000 17.570653 -5.799707 -2.513551 6.625456 15.285897 1.367659 -9.367860 -2.029771 12.810768 -33.524764 23.912829 52.019066 -154.368409 70.750637 150.436843 0.000000 0.000000 0.000000 
